<svg viewBox="0 0 512 512" xmlns="http://www.w3.org/2000/svg">
  <rect width="100%" height="100%" fill="#1a1c28"/>
  <path fill="#9987f7" d="M 281.22222,61.638889 C 252.51406,62.341088 242.25,96.444445 242.25,96.444445 c 0,0 21.8613,-0.227895 38.08333,1.999999 19.6592,2.699826 36.77778,8.472226 36.77778,8.472226 0,0 -12.11681,-45.859239 -35.88889,-45.277781 z M 176.44444,79.111111 C 128.25938,81.13938 95.617024,148.8239 164.36111,238.22222 c 0.80656,1.04883 -3.85277,2.37388 -12.25,-6.08333 -14.29507,-14.39723 -25.27778,-39.58333 -25.27778,-39.58333 0,0 -30.435149,90.7404 -54.555552,125.36111 C 46.575304,354.80743 17.318254,376.31454 0,387.38889 v 124.61109 h 234.55556 c 2.59175,-6.54093 4.61992,-13.45464 5.88889,-20.77775 C 252.4793,421.77296 284.21296,359.87744 356.55554,346.5 c 87.13427,-16.11291 100.05555,-65.19445 100.05555,-65.19445 0,0 -22.84751,-6.68893 -23.72218,-24.47222 -0.72761,-14.76956 26.44443,-16 26.44443,-16 0,0 -16.77999,-12.90351 -42.25001,-31.02778 -14.15721,-10.07651 -23.71546,-44.7471 -63.55555,-75.52777 -42.51364,-32.84969 -109.55556,-29.36111 -109.55556,-29.36111 0,0 11.18954,19.49581 11.88889,25.47222 1.15061,9.8381 -4.14297,0.85826 -4.80555,-0.19445 -20.40654,-35.136255 -46.82468,-50.025751 -69.88889,-51.083329 -1.58601,-0.07268 -3.16794,-0.06541 -4.72223,0 z M 331.66667,200.88889 c 11.37695,-0.77289 21.73645,6.54446 24.80555,17.52778 l 0.88887,6.47222 c 0,12.65371 -9.79196,23.13771 -22.41664,24 -12.62508,0.86151 -23.75346,-8.18539 -25.47223,-20.72222 -1.71877,-12.53684 6.55391,-24.26466 18.94445,-26.83334 1.07321,-0.22215 2.15627,-0.37052 3.25,-0.44444 z"/>
  <path fill="#7b6dc4" d="m 177.84845,197.13285 c 0,0 -44.43023,-63.57598 -8.46796,-99.538252 26.21392,-26.213922 64.86752,30.516502 64.86752,30.516502 0,0 -40.50667,-3.42071 -42.97866,11.82315 -1.00026,6.16799 14.37955,10.70468 14.37955,10.70468 0,0 -10.86453,14.69916 -15.49793,22.44815 -4.63345,7.74898 -12.30252,24.04577 -12.30252,24.04577 z"/>
</svg>
