<svg viewBox="0 0 512 512" xmlns="http://www.w3.org/2000/svg">
  <path fill="#181825" d="M 255.99974,0.1037582 A 255.89609,255.89609 0 0 0 0.10375619,255.99978 255.89609,255.89609 0 0 0 255.99974,511.89625 255.89609,255.89609 0 0 0 339.13667,498.01466 125.31725,125.31725 0 0 1 288.18864,397.14979 125.31725,125.31725 0 0 1 413.50582,271.83251 125.31725,125.31725 0 0 1 505.64585,312.21104 255.89609,255.89609 0 0 0 511.89622,255.99978 255.89609,255.89609 0 0 0 255.99974,0.1037582 Z"/>
  <circle fill="#989898" cx="413.73395" cy="395.55249" r="62.658623"/>
  <path fill="#9987f7" d="M 281.22266,61.638672 C 252.51456,62.340868 242.25,96.445313 242.25,96.445312 c 0,0 21.86201,-0.227885 38.08398,2 19.65914,2.699828 36.77735,8.470708 36.77735,8.470708 0,0 -12.11668,-45.858806 -35.88867,-45.277348 z M 176.44531,79.111328 c -48.18491,2.028263 -80.827865,69.713282 -12.08398,159.111332 0.80656,1.04883 -3.8528,2.37319 -12.25,-6.08399 -14.29504,-14.39717 -25.27735,-39.58398 -25.27735,-39.58398 0,0 -30.436305,90.74071 -54.556636,125.36133 -11.322277,16.25085 -23.296424,29.36279 -34.673828,40.0664 36.151435,77.35626 112.144444,132.24302 201.664064,138.37696 0.39018,-1.71398 0.87261,-3.37594 1.17773,-5.13672 7.3847,-42.61472 22.24188,-82.33049 49.29102,-109.79297 a 125.31725,125.31725 0 0 1 123.76953,-109.59766 125.31725,125.31725 0 0 1 33.93945,5.30274 c -6.47254,-3.74441 -14.05852,-10.17329 -14.55664,-20.30079 -0.72761,-14.7695 26.44531,-16 26.44531,-16 0,0 -16.78004,-12.90508 -42.25,-31.02929 -14.15715,-10.07648 -23.71667,-44.74677 -63.55664,-75.52735 -42.51349,-32.84957 -109.55468,-29.36132 -109.55468,-29.36132 0,0 11.18932,19.49627 11.88867,25.47265 1.15061,9.83807 -4.14406,0.85935 -4.80664,-0.19336 -20.40648,-35.136141 -46.82455,-50.026407 -69.88867,-51.083982 -1.58601,-0.07268 -3.16642,-0.06541 -4.72071,0 z M 331.66602,200.88867 c 11.37689,-0.77289 21.73754,6.54406 24.80664,17.52735 l 0.88867,6.47265 c 0,12.65368 -9.79137,23.13771 -22.41602,24 -12.62502,0.86151 -23.75391,-8.18588 -25.47265,-20.72265 -1.71877,-12.53681 6.55285,-24.26336 18.94336,-26.83204 1.07318,-0.22215 2.15627,-0.37139 3.25,-0.44531 z"/>
  <path fill="#7b6dc4" d="m 177.84845,197.13285 c 0,0 -44.43023,-63.57598 -8.46796,-99.538252 26.21392,-26.213922 64.86752,30.516502 64.86752,30.516502 0,0 -40.50667,-3.42071 -42.97866,11.82315 -1.00026,6.16799 14.37955,10.70468 14.37955,10.70468 0,0 -10.86453,14.69916 -15.49793,22.44815 -4.63345,7.74898 -12.30252,24.04577 -12.30252,24.04577 z"/>
</svg>
